# xmcd
#
# Track frame offsets:
#	150
#	15005
#	29780
#	47732
#	60430
#	75472
#	87310
#	102510
#	121692
#	135880
#	154277
#	176772
#	197927
#	211897
#	226465
#	244627
#
# Disc length: 3462 seconds
#
# Revision: 4
# Processed by: cddbd v1.5.2PL0 Copyright (c) Steve Scherf et al.
# Submitted via: audiograbber 1.83.01
#
DISCID=c80d8410
DTITLE=MH1042 Monster Hits - Female Country Hits (MH)
DYEAR=2008
DGENRE=Karaoke
TTITLE0=Trisha Yearwood - You Can Sleep While I Drive (MH)
TTITLE1=Terri Clark - Better Things To Do (MH)
TTITLE2=Trisha Yearwood - Down On My Knees (MH)
TTITLE3=Faith Hill - Wild One (MH)
TTITLE4=Faith Hill - Take Me As I Am (MH)
TTITLE5=Martina McBride - My Baby Loves Me (MH)
TTITLE6=Pam Tillis - Shake The Sugar Tree (MH)
TTITLE7=Reba McEntire - Night The Lights Went Out In Georgia (MH)
TTITLE8=Tanya Tucker - If Your Heart Ain't Busy Tonight (MH)
TTITLE9=LeAnn Rimes - On The Side Of Angels (MH)
TTITLE10=Shania Twain - From This Moment On (MH)
TTITLE11=Trisha Yearwood - Walkaway Joe (MH)
TTITLE12=Patty Loveless - Here I Am (MH)
TTITLE13=Reba McEntire - It's Your Call (MH)
TTITLE14=Faith Hill - Piece Of My Heart (MH)
TTITLE15=Martina McBride - Safe In The Arms Of Love (MH)
EXTD=
EXTT0=
EXTT1=
EXTT2=
EXTT3=
EXTT4=
EXTT5=
EXTT6=
EXTT7=
EXTT8=
EXTT9=
EXTT10=
EXTT11=
EXTT12=
EXTT13=
EXTT14=
EXTT15=
PLAYORDER=
